<?xml version="1.0" encoding="UTF-8"?>
<svg width="1940px" height="283px" viewBox="0 0 1940 283" version="1.1" xmlns="http://www.w3.org/2000/svg" xmlns:xlink="http://www.w3.org/1999/xlink">
    <!-- Generator: Sketch 50.2 (55047) - http://www.bohemiancoding.com/sketch -->
    <title>parsley_logo_onelone_FINAL_DARKGREY</title>
    <desc>Created with Sketch.</desc>
    <defs></defs>
    <g id="parsley_logo_onelone_FINAL_DARKGREY" stroke="none" stroke-width="1" fill="none" fill-rule="evenodd">
        <path d="M1507.02,170.12 L1507.02,123.92 C1499.68,112.78 1485.82,105.44 1470.87,105.44 C1447.78,105.44 1431.47,123.378 1431.47,147.02 C1431.47,170.663 1447.78,188.6 1470.87,188.6 C1485.82,188.6 1499.68,181.263 1507.02,170.12 Z M1507.02,205.176 C1497.51,212.787 1485.01,217.136 1470.6,217.136 C1430.38,217.136 1400.76,186.696 1400.76,147.02 C1400.76,107.343 1430.38,76.907 1470.6,76.907 C1485.01,76.907 1497.51,81.528 1507.02,89.134 L1507.02,79.08 L1536.91,79.08 L1536.91,214.962 L1507.02,214.962 L1507.02,205.176 Z" id="Fill-1" fill="#414241"></path>
        <path d="M287.466,170.12 L287.466,123.92 C280.129,112.78 266.269,105.44 251.322,105.44 C228.223,105.44 211.916,123.378 211.916,147.02 C211.916,170.663 228.223,188.6 251.322,188.6 C266.269,188.6 280.129,181.263 287.466,170.12 Z M287.466,205.176 C277.954,212.787 265.453,217.136 251.05,217.136 C210.83,217.136 181.208,186.696 181.208,147.02 C181.208,107.343 210.83,76.907 251.05,76.907 C265.453,76.907 277.954,81.528 287.466,89.134 L287.466,79.08 L317.359,79.08 L317.359,214.962 L287.466,214.962 L287.466,205.176 Z" id="Fill-2" fill="#414241"></path>
        <path d="M1271.17,130.985 L1341.01,130.985 C1337.48,112.505 1324.71,103.265 1306.77,103.265 C1290.74,103.265 1276.06,113.867 1271.17,130.985 Z M1239.38,145.932 C1239.38,106.257 1269.27,75.82 1308.95,75.82 C1346.72,75.82 1371.99,102.453 1373.9,145.932 L1373.9,154.085 L1270.36,154.085 C1273.35,173.382 1289.11,186.425 1309.49,186.425 C1325.8,186.425 1337.75,178.818 1344.82,170.936 L1364.93,192.403 C1353.24,205.992 1333.41,216.049 1309.49,216.049 C1269.27,216.049 1239.38,185.609 1239.38,145.932 Z" id="Fill-3" fill="#414241"></path>
        <path d="M1644.29,77.993 L1664.39,77.993 L1664.39,51.903 L1694.28,37.229 L1694.28,77.993 L1729.08,77.993 L1729.07,104.627 L1694.28,104.627 L1694.28,166.316 C1694.28,180.176 1698.09,186.425 1713.58,186.425 L1732.33,186.425 L1732.33,213.874 L1705.97,213.874 C1679.88,213.874 1664.39,198.381 1664.39,172.565 L1664.39,104.627 L1644.29,104.627 L1644.29,77.993" id="Fill-4" fill="#414241"></path>
        <polyline id="Fill-5" fill="#414241" points="1581.1 35.62 1581.1 213.874 1610.99 213.874 1610.99 21.005 1581.1 35.62"></polyline>
        <path d="M1839.27,75.82 C1825.13,75.82 1810.73,80.44 1801.22,90.767 L1801.22,20.922 L1801.03,21.094 L1771.33,35.616 L1771.33,213.874 L1801.22,213.874 L1801.22,128.269 C1806.65,112.235 1818.34,104.353 1833.56,104.353 C1853.67,104.353 1864.54,120.116 1864.54,134.793 L1864.54,213.874 L1894.43,213.874 L1894.43,134.247 C1894.43,99.191 1872.96,75.82 1839.27,75.82" id="Fill-6" fill="#414241"></path>
        <polyline id="Fill-7" fill="#414241" points="1207.86 20.922 1176.34 36.329 1176.34 100.82 1080.68 100.82 1080.68 20.922 1080.67 20.922 1049.16 36.329 1049.16 216.881 1080.68 216.881 1080.68 131.26 1176.34 131.26 1176.34 216.881 1207.87 216.881 1207.87 20.922 1207.86 20.922"></polyline>
        <path d="M101.592,115.496 C124.691,115.496 138.279,102.724 138.279,83.427 C138.279,64.135 124.691,51.362 101.592,51.362 L76.861,51.362 L76.861,115.496 L101.592,115.496 Z M45.337,22.009 L102.95,22.009 C142.899,22.009 170.347,47.013 170.347,83.427 C170.347,119.3 142.899,144.845 102.95,144.845 L76.861,144.845 L76.861,214.962 L45.337,214.962 L45.337,22.009 Z" id="Fill-8" fill="#414241"></path>
        <path d="M358.115,76.907 L388.009,76.907 L388.009,92.396 C396.705,82.069 408.391,77.178 423.065,77.178 C426.599,77.178 429.859,77.449 432.849,77.995 L432.849,109.245 C428.772,107.887 423.609,107.343 417.902,107.343 C405.13,107.343 393.987,112.235 388.009,123.649 L388.009,214.962 L358.115,214.962 L358.115,76.907" id="Fill-9" fill="#414241"></path>
        <path d="M453.222,189.416 L476.05,173.111 C482.571,184.251 490.181,190.504 503.768,190.504 C514.096,190.504 521.161,185.338 521.161,178.002 C521.161,170.12 515.455,165.5 502.953,160.88 L493.442,157.076 C470.342,148.107 460.287,133.705 460.287,115.225 C460.287,93.213 478.766,76.907 504.04,76.907 C521.432,76.907 536.38,83.7 546.434,100.549 L524.422,115.767 C519.802,107.343 513.28,103.54 504.584,103.54 C496.703,103.54 489.637,107.614 489.637,114.409 C489.637,121.474 494.257,125.823 507.029,130.985 L516.812,134.518 C539.641,143.487 552.414,155.445 552.414,176.643 C552.414,200.556 532.575,217.136 503.768,217.136 C482.299,217.136 464.363,208.438 453.222,189.416" id="Fill-10" fill="#414241"></path>
        <path d="M685.295,132.072 L755.138,132.072 C751.604,113.593 738.832,104.353 720.895,104.353 C704.862,104.353 690.186,114.953 685.295,132.072 Z M653.499,147.02 C653.499,107.343 683.393,76.907 723.069,76.907 C760.845,76.907 786.118,103.54 788.021,147.02 L788.021,155.173 L684.479,155.173 C687.47,174.469 703.231,187.512 723.613,187.512 C739.919,187.512 751.877,179.904 758.942,172.024 L779.053,193.49 C767.366,207.08 747.528,217.136 723.613,217.136 C683.393,217.136 653.499,186.696 653.499,147.02 Z" id="Fill-11" fill="#414241"></path>
        <polyline id="Fill-12" fill="#414241" points="586.92 36.62 586.92 216.574 616.813 216.574 616.813 22.009 616.804 22.009 586.92 36.62"></polyline>
        <polyline id="Fill-13" fill="#414241" points="855.957 205.994 802.42 77.178 834.488 77.178 871.446 170.936 908.679 77.178 940.745 77.178 863.022 263.063 831.498 263.063 855.957 205.994"></polyline>
    </g>
</svg>